# xmcd
#
# Track frame offsets:
#  150
#  11280
#  22110
#  37915
#  52595
#  68328
#  81418
#  94745
#  107555
#  124978
#
# Disc length: 1884 seconds
#
# Revision: 6
# Processed by: cddbd v1.5.1PL2 Copyright (c) Steve Scherf et al.
# Submitted via: Collectorz.com_Music_Collector 6.10
#
DISCID=6d075a0a
DTITLE=Alan Jackson - A Lot About Livin' And A Little 'Bout Love
DYEAR=1992
DGENRE=Country
TTITLE0=Chattahoochee
TTITLE1=She's Got The Rythym
TTITLE2=Tonight I Climbed The Wall
TTITLE3=I Don't Need The Booze(To Get A Buzz On)
TTITLE4=(Who Says) You Can't Have It All
TTITLE5=Up To My Ears In Tears
TTITLE6=Tropical Depression
TTITLE7=She Likes It Too
TTITLE8=If It Ain't One Thing (It's You)
TTITLE9=Mercury Blues
EXTD=
EXTT0=
EXTT1=
EXTT2=
EXTT3=
EXTT4=
EXTT5=
EXTT6=
EXTT7=
EXTT8=
EXTT9=
PLAYORDER=
